<svg id="Capa_1" enable-background="new 0 0 512 512" height="512" viewBox="0 0 512 512" width="512" xmlns="http://www.w3.org/2000/svg" fill="#3f51b5"><g><path d="m375.9 211v-75h-45v45c0 8.284-6.716 15-15 15h-119.9c-8.284 0-15-6.716-15-15v-45h-45.1v75c0 1.956-.383 3.893-1.126 5.702l-49.126 119.529c-12.259 29.827-13.042 89.102-2.545 122.807 1.295 4.157 5.177 6.961 9.531 6.961h326.65c4.333 0 8.196-2.778 9.514-6.906 10.87-34.057 10.105-93.849-2.521-124.159-51.005-123.475-50.377-118.457-50.377-123.934zm-179.95 180c-8.284 0-15-6.716-15-15s6.716-15 15-15 15 6.716 15 15-6.716 15-15 15zm0-60c-8.284 0-15-6.716-15-15s6.716-15 15-15 15 6.716 15 15-6.716 15-15 15zm0-60c-8.284 0-15-6.716-15-15s6.716-15 15-15 15 6.716 15 15-6.716 15-15 15zm60 120c-8.284 0-15-6.716-15-15s6.716-15 15-15 15 6.716 15 15-6.716 15-15 15zm0-60c-8.284 0-15-6.716-15-15s6.716-15 15-15 15 6.716 15 15-6.716 15-15 15zm0-60c-8.284 0-15-6.716-15-15s6.716-15 15-15 15 6.716 15 15-6.716 15-15 15zm60 120c-8.284 0-15-6.716-15-15s6.716-15 15-15 15 6.716 15 15-6.716 15-15 15zm0-60c-8.284 0-15-6.716-15-15s6.716-15 15-15 15 6.716 15 15-6.716 15-15 15zm0-60c-8.284 0-15-6.716-15-15s6.716-15 15-15 15 6.716 15 15-6.716 15-15 15z"/><path d="m407 46h-302c-57.9 0-105 47.1-105 105v45c0 8.28 6.72 15 15 15h90.9v-90c0-8.28 6.72-15 15-15h270c8.28 0 15 6.72 15 15v90h91.1c8.28 0 15-6.72 15-15v-45c0-57.9-47.1-105-105-105z"/><path d="m211 136h89.9v30h-89.9z"/></g></svg>